<svg xmlns="http://www.w3.org/2000/svg" viewBox="0 0 900 1200" width="900" height="1200" role="img" aria-label="nano-rope against text-rope, yi-rope and core-text"><title>nano-rope against text-rope, yi-rope and core-text</title><style>svg{font-family:system-ui,-apple-system,"Segoe UI",Roboto,sans-serif;--surface:#fcfcfb;--ink:#0b0b0b;--ink2:#52514e;--muted:#898781;--grid:#e8e7e1;--axis:#c3c2b7;--rule:#d6d5ce;--hover:rgba(11,11,11,.04);--s0:#2a78d6;--s1:#e87ba4;--s2:#eda100;--s3:#008300}@media (prefers-color-scheme:dark){svg{--surface:#1a1a19;--ink:#fff;--ink2:#c3c2b7;--muted:#898781;--grid:#262624;--axis:#44443f;--rule:#383835;--hover:rgba(255,255,255,.05);--s0:#3987e5;--s1:#d55181;--s2:#c98500;--s3:#008300}}.bg{fill:var(--surface)}text{fill:var(--ink2);font-size:12.5px}.t{fill:var(--ink);font-size:20px;font-weight:650;letter-spacing:-.01em}.st{font-size:12.5px}.gh{fill:var(--ink);font-size:13px;font-weight:650}.ch{fill:var(--ink);font-size:11.5px;font-weight:600}.rl{fill:var(--ink)}.sl{fill:var(--muted);font-size:11px}.k{fill:var(--muted);font-size:10.5px;font-variant-numeric:tabular-nums}.q{fill:var(--ink);font-size:15px;font-weight:650;font-variant-numeric:tabular-nums}.q.w{fill:var(--ink2);font-weight:500}.qw{fill:var(--muted);font-size:11px;font-weight:400}.n{fill:var(--muted);font-size:11.5px}.g{stroke:var(--grid);stroke-width:1}.a{stroke:var(--axis);stroke-width:1}.ru{stroke:var(--rule);stroke-width:1}.c{stroke:var(--axis);stroke-width:2;stroke-linecap:round}.m{stroke:var(--surface);stroke-width:4;paint-order:stroke;stroke-linejoin:round}.s0{fill:var(--s0)}.s1{fill:var(--s1)}.s2{fill:var(--s2)}.s3{fill:var(--s3)}.o{stroke-width:1.5;paint-order:normal}.o.s0{fill:var(--surface);stroke:var(--s0)}.o.s1{fill:var(--surface);stroke:var(--s1)}.o.s2{fill:var(--surface);stroke:var(--s2)}.o.s3{fill:var(--surface);stroke:var(--s3)}.hit{fill:transparent}.run:hover .hit{fill:var(--hover)}</style><rect class="bg" width="100%" height="100%" rx="10"/><text x="20" y="40" class="t">nano-rope against text-rope, yi-rope and core-text</text><text x="20" y="62" class="st">A run is 10,000 operations on 100,000 lines of source code (4.0 MB), or one load or save of it. GHC 9.14.1, chunks scanned with AVX2.</text><circle class="m s0" cx="26" cy="88" r="5.5"/><text x="38" y="92" class="rl">nano-rope</text><rect class="m s1" x="130" y="83.2" width="9.5" height="9.5" rx="1.5"/><text x="146.8" y="92" class="rl">text-rope</text><polygon class="m s2" points="243.6,81.5 250.1,88 243.6,94.5 237.1,88"/><text x="255.6" y="92" class="rl">yi-rope</text><polygon class="m s3" points="338,81.5 344.5,93 331.5,93"/><text x="350" y="92" class="rl">core-text</text><line class="ru" x1="20" y1="116" x2="880" y2="116"/><text x="236" y="138" class="ch">Time per run</text><text x="812" y="138" class="ch" text-anchor="end">nano-rope against</text><text x="812" y="152" class="ch" text-anchor="end">the fastest other</text><line class="a" x1="236" y1="170" x2="526" y2="170"/><line class="a" x1="236" y1="826" x2="526" y2="826"/><line class="g" x1="236" y1="170" x2="236" y2="826"/><text x="236" y="158" class="k" text-anchor="middle">10 ns</text><text x="236" y="844" class="k" text-anchor="middle">10 ns</text><line class="g" x1="268.2" y1="170" x2="268.2" y2="826"/><line class="g" x1="300.4" y1="170" x2="300.4" y2="826"/><text x="300.4" y="158" class="k" text-anchor="middle">1 µs</text><text x="300.4" y="844" class="k" text-anchor="middle">1 µs</text><line class="g" x1="332.7" y1="170" x2="332.7" y2="826"/><line class="g" x1="364.9" y1="170" x2="364.9" y2="826"/><text x="364.9" y="158" class="k" text-anchor="middle">100 µs</text><text x="364.9" y="844" class="k" text-anchor="middle">100 µs</text><line class="g" x1="397.1" y1="170" x2="397.1" y2="826"/><line class="g" x1="429.3" y1="170" x2="429.3" y2="826"/><text x="429.3" y="158" class="k" text-anchor="middle">10 ms</text><text x="429.3" y="844" class="k" text-anchor="middle">10 ms</text><line class="g" x1="461.6" y1="170" x2="461.6" y2="826"/><line class="g" x1="493.8" y1="170" x2="493.8" y2="826"/><text x="493.8" y="158" class="k" text-anchor="middle">1 s</text><text x="493.8" y="844" class="k" text-anchor="middle">1 s</text><line class="g" x1="526" y1="170" x2="526" y2="826"/><text x="552" y="138" class="ch">Allocated per run</text><line class="a" x1="552" y1="170" x2="712" y2="170"/><line class="a" x1="552" y1="826" x2="712" y2="826"/><line class="g" x1="552" y1="170" x2="552" y2="826"/><line class="g" x1="569.8" y1="170" x2="569.8" y2="826"/><line class="g" x1="587.6" y1="170" x2="587.6" y2="826"/><text x="587.6" y="158" class="k" text-anchor="middle">1 kB</text><text x="587.6" y="844" class="k" text-anchor="middle">1 kB</text><line class="g" x1="605.3" y1="170" x2="605.3" y2="826"/><line class="g" x1="623.1" y1="170" x2="623.1" y2="826"/><line class="g" x1="640.9" y1="170" x2="640.9" y2="826"/><text x="640.9" y="158" class="k" text-anchor="middle">1 MB</text><text x="640.9" y="844" class="k" text-anchor="middle">1 MB</text><line class="g" x1="658.7" y1="170" x2="658.7" y2="826"/><line class="g" x1="676.4" y1="170" x2="676.4" y2="826"/><line class="g" x1="694.2" y1="170" x2="694.2" y2="826"/><text x="694.2" y="158" class="k" text-anchor="middle">1 GB</text><text x="694.2" y="844" class="k" text-anchor="middle">1 GB</text><line class="g" x1="712" y1="170" x2="712" y2="826"/><text x="20" y="197" class="gh">Loading and saving</text><g class="run"><title>fromText
nano-rope: 1.06 ms, 7.41 MB allocated
text-rope: 2.75 ms, 11.7 MB allocated
yi-rope: 4.57 ms, 2.71 MB allocated
core-text: 10.0 ns, 55.0 B allocated
</title><rect class="hit" x="12" y="211" width="876" height="24" rx="4"/><text x="20" y="227" class="rl">fromText</text><line class="c" x1="236" y1="223" x2="418.4" y2="223"/><polygon class="m s3" points="236,216.5 242.5,228 229.5,228"/><polygon class="m s2" points="418.4,216.5 424.9,223 418.4,229.5 411.9,223"/><rect class="m s1" x="406.5" y="218.2" width="9.5" height="9.5" rx="1.5"/><circle class="m s0" cx="398" cy="223" r="5.5"/><text x="812" y="228" class="q w" text-anchor="end">105,831×</text><text x="818" y="227" class="qw">slower</text><line class="c" x1="565.2" y1="223" x2="659.9" y2="223"/><polygon class="m s3" points="565.2,216.5 571.7,228 558.7,228"/><polygon class="m s2" points="648.6,216.5 655.1,223 648.6,229.5 642.1,223"/><rect class="m s1" x="655.1" y="218.2" width="9.5" height="9.5" rx="1.5"/><circle class="m s0" cx="656.3" cy="223" r="5.5"/></g><g class="run"><title>toText, fresh
nano-rope: 261 µs, 4.03 MB allocated
text-rope: 38.7 ns, 383 B allocated
yi-rope: 1.05 ms, 8.07 MB allocated
core-text: 76.1 ns, 543 B allocated
</title><rect class="hit" x="12" y="241" width="876" height="24" rx="4"/><text x="20" y="257" class="rl">toText</text><text x="222" y="257" class="sl" text-anchor="end">fresh</text><line class="c" x1="255" y1="253" x2="397.8" y2="253"/><polygon class="m s3" points="264.4,246.5 270.9,258 257.9,258"/><polygon class="m s2" points="397.8,246.5 404.3,253 397.8,259.5 391.3,253"/><rect class="m s1" x="250.2" y="248.2" width="9.5" height="9.5" rx="1.5"/><circle class="m s0" cx="378.3" cy="253" r="5.5"/><text x="812" y="258" class="q w" text-anchor="end">6,725×</text><text x="818" y="257" class="qw">slower</text><line class="c" x1="580.1" y1="253" x2="657" y2="253"/><polygon class="m s3" points="582.8,246.5 589.3,258 576.3,258"/><polygon class="m s2" points="657,246.5 663.5,253 657,259.5 650.5,253"/><rect class="m s1" x="575.4" y="248.2" width="9.5" height="9.5" rx="1.5"/><circle class="m s0" cx="651.6" cy="253" r="5.5"/></g><g class="run"><title>toText, edited
nano-rope: 284 µs, 4.04 MB allocated
text-rope: 473 µs, 5.25 MB allocated
yi-rope: 1.86 ms, 11.6 MB allocated
core-text: 3.17 ms, 15.2 MB allocated
</title><rect class="hit" x="12" y="265" width="876" height="24" rx="4"/><text x="222" y="281" class="sl" text-anchor="end">edited</text><line class="c" x1="379.5" y1="277" x2="413.3" y2="277"/><polygon class="m s3" points="413.3,270.5 419.8,282 406.8,282"/><polygon class="m s2" points="405.8,270.5 412.3,277 405.8,283.5 399.3,277"/><rect class="m s1" x="381.9" y="272.2" width="9.5" height="9.5" rx="1.5"/><circle class="m s0" cx="379.5" cy="277" r="5.5"/><text x="812" y="282" class="q" text-anchor="end">1.7×</text><text x="818" y="281" class="qw">faster</text><line class="c" x1="651.7" y1="277" x2="661.9" y2="277"/><polygon class="m s3" points="661.9,270.5 668.4,282 655.4,282"/><polygon class="m s2" points="659.8,270.5 666.3,277 659.8,283.5 653.3,277"/><rect class="m s1" x="648.9" y="272.2" width="9.5" height="9.5" rx="1.5"/><circle class="m s0" cx="651.7" cy="277" r="5.5"/></g><text x="20" y="319" class="gh">Editing</text><g class="run"><title>Random inserts, fresh
nano-rope: 4.88 ms, 17.9 MB allocated
text-rope: 19.3 ms, 75.4 MB allocated
yi-rope: 104 ms, 331 MB allocated
core-text: 344 ms, 321 MB allocated
</title><rect class="hit" x="12" y="333" width="876" height="24" rx="4"/><text x="20" y="349" class="rl">Random inserts</text><text x="222" y="349" class="sl" text-anchor="end">fresh</text><line class="c" x1="419.3" y1="345" x2="478.8" y2="345"/><polygon class="m s3" points="478.8,338.5 485.3,350 472.3,350"/><polygon class="m s2" points="462.1,338.5 468.6,345 462.1,351.5 455.6,345"/><rect class="m s1" x="433.8" y="340.2" width="9.5" height="9.5" rx="1.5"/><circle class="m s0" cx="419.3" cy="345" r="5.5"/><text x="812" y="350" class="q" text-anchor="end">4.0×</text><text x="818" y="349" class="qw">faster</text><line class="c" x1="663.2" y1="345" x2="685.7" y2="345"/><polygon class="m s3" points="685.4,338.5 691.9,350 678.9,350"/><polygon class="m s2" points="685.7,338.5 692.2,345 685.7,351.5 679.2,345"/><rect class="m s1" x="669.5" y="340.2" width="9.5" height="9.5" rx="1.5"/><circle class="m s0" cx="663.2" cy="345" r="5.5"/></g><g class="run"><title>Random inserts, edited
nano-rope: 5.18 ms, 17.9 MB allocated
text-rope: 20.2 ms, 87.2 MB allocated
yi-rope: 107 ms, 335 MB allocated
core-text: 195 ms, 304 MB allocated
</title><rect class="hit" x="12" y="357" width="876" height="24" rx="4"/><text x="222" y="373" class="sl" text-anchor="end">edited</text><line class="c" x1="420.1" y1="369" x2="470.9" y2="369"/><polygon class="m s3" points="470.9,362.5 477.4,374 464.4,374"/><polygon class="m s2" points="462.5,362.5 469,369 462.5,375.5 456,369"/><rect class="m s1" x="434.4" y="364.2" width="9.5" height="9.5" rx="1.5"/><circle class="m s0" cx="420.1" cy="369" r="5.5"/><text x="812" y="374" class="q" text-anchor="end">3.9×</text><text x="818" y="373" class="qw">faster</text><line class="c" x1="663.2" y1="369" x2="685.8" y2="369"/><polygon class="m s3" points="685,362.5 691.5,374 678.5,374"/><polygon class="m s2" points="685.8,362.5 692.3,369 685.8,375.5 679.3,369"/><rect class="m s1" x="670.6" y="364.2" width="9.5" height="9.5" rx="1.5"/><circle class="m s0" cx="663.2" cy="369" r="5.5"/></g><g class="run"><title>Random deletes
nano-rope: 5.40 ms, 17.9 MB allocated
text-rope: 412 ms, 2.67 GB allocated
yi-rope: 85.9 ms, 294 MB allocated
core-text: 500 ms, 341 MB allocated
</title><rect class="hit" x="12" y="387" width="876" height="24" rx="4"/><text x="20" y="403" class="rl">Random deletes</text><line class="c" x1="420.7" y1="399" x2="484.1" y2="399"/><polygon class="m s3" points="484.1,392.5 490.6,404 477.6,404"/><polygon class="m s2" points="459.4,392.5 465.9,399 459.4,405.5 452.9,399"/><rect class="m s1" x="476.6" y="394.2" width="9.5" height="9.5" rx="1.5"/><circle class="m s0" cx="420.7" cy="399" r="5.5"/><text x="812" y="404" class="q" text-anchor="end">16×</text><text x="818" y="403" class="qw">faster</text><line class="c" x1="663.2" y1="399" x2="701.8" y2="399"/><polygon class="m s3" points="685.9,392.5 692.4,404 679.4,404"/><polygon class="m s2" points="684.8,392.5 691.3,399 684.8,405.5 678.3,399"/><rect class="m s1" x="697.1" y="394.2" width="9.5" height="9.5" rx="1.5"/><circle class="m s0" cx="663.2" cy="399" r="5.5"/></g><g class="run"><title>Random inserts, one long line
nano-rope: 4.88 ms, 18.1 MB allocated
text-rope: 16.8 ms, 66.0 MB allocated
yi-rope: 103 ms, 326 MB allocated
core-text: 296 ms, 319 MB allocated
</title><rect class="hit" x="12" y="417" width="876" height="24" rx="4"/><text x="20" y="433" class="rl">Random inserts, one long line</text><line class="c" x1="419.3" y1="429" x2="476.7" y2="429"/><polygon class="m s3" points="476.7,422.5 483.2,434 470.2,434"/><polygon class="m s2" points="461.9,422.5 468.4,429 461.9,435.5 455.4,429"/><rect class="m s1" x="431.8" y="424.2" width="9.5" height="9.5" rx="1.5"/><circle class="m s0" cx="419.3" cy="429" r="5.5"/><text x="812" y="434" class="q" text-anchor="end">3.4×</text><text x="818" y="433" class="qw">faster</text><line class="c" x1="663.2" y1="429" x2="685.6" y2="429"/><polygon class="m s3" points="685.4,422.5 691.9,434 678.9,434"/><polygon class="m s2" points="685.6,422.5 692.1,429 685.6,435.5 679.1,429"/><rect class="m s1" x="668.5" y="424.2" width="9.5" height="9.5" rx="1.5"/><circle class="m s0" cx="663.2" cy="429" r="5.5"/></g><g class="run"><title>Edits at UTF-16 positions
nano-rope: 8.33 ms, 24.3 MB allocated
text-rope: 42.2 ms, 148 MB allocated
yi-rope: cannot do this
core-text: cannot do this
</title><rect class="hit" x="12" y="447" width="876" height="24" rx="4"/><text x="20" y="463" class="rl">Edits at UTF-16 positions</text><line class="c" x1="426.8" y1="459" x2="449.5" y2="459"/><rect class="m s1" x="444.7" y="454.2" width="9.5" height="9.5" rx="1.5"/><circle class="m s0" cx="426.8" cy="459" r="5.5"/><text x="812" y="464" class="q" text-anchor="end">5.1×</text><text x="818" y="463" class="qw">faster</text><line class="c" x1="665.5" y1="459" x2="679.5" y2="459"/><rect class="m s1" x="674.7" y="454.2" width="9.5" height="9.5" rx="1.5"/><circle class="m s0" cx="665.5" cy="459" r="5.5"/></g><text x="20" y="501" class="gh">Typing</text><g class="run"><title>100 bursts of 100 keystrokes, fresh
nano-rope: 497 µs, 3.15 MB allocated
text-rope: 3.78 ms, 15.7 MB allocated
yi-rope: 64.1 ms, 301 MB allocated
core-text: 4.48 s, 260 MB allocated
</title><rect class="hit" x="12" y="515" width="876" height="24" rx="4"/><text x="20" y="531" class="rl">100 bursts of 100 keystrokes</text><text x="222" y="531" class="sl" text-anchor="end">fresh</text><line class="c" x1="387.3" y1="527" x2="514.7" y2="527"/><polygon class="m s3" points="514.7,520.5 521.2,532 508.2,532"/><polygon class="m s2" points="455.3,520.5 461.8,527 455.3,533.5 448.8,527"/><rect class="m s1" x="411" y="522.2" width="9.5" height="9.5" rx="1.5"/><circle class="m s0" cx="387.3" cy="527" r="5.5"/><text x="812" y="532" class="q" text-anchor="end">7.6×</text><text x="818" y="531" class="qw">faster</text><line class="c" x1="649.7" y1="527" x2="685" y2="527"/><polygon class="m s3" points="683.8,520.5 690.3,532 677.3,532"/><polygon class="m s2" points="685,520.5 691.5,527 685,533.5 678.5,527"/><rect class="m s1" x="657.4" y="522.2" width="9.5" height="9.5" rx="1.5"/><circle class="m s0" cx="649.7" cy="527" r="5.5"/></g><g class="run"><title>100 bursts of 100 keystrokes, edited
nano-rope: 493 µs, 3.10 MB allocated
text-rope: 2.62 ms, 16.6 MB allocated
yi-rope: 75.9 ms, 350 MB allocated
core-text: 145 ms, 312 MB allocated
</title><rect class="hit" x="12" y="539" width="876" height="24" rx="4"/><text x="222" y="555" class="sl" text-anchor="end">edited</text><line class="c" x1="387.2" y1="551" x2="466.7" y2="551"/><polygon class="m s3" points="466.7,544.5 473.2,556 460.2,556"/><polygon class="m s2" points="457.7,544.5 464.2,551 457.7,557.5 451.2,551"/><rect class="m s1" x="405.9" y="546.2" width="9.5" height="9.5" rx="1.5"/><circle class="m s0" cx="387.2" cy="551" r="5.5"/><text x="812" y="556" class="q" text-anchor="end">5.3×</text><text x="818" y="555" class="qw">faster</text><line class="c" x1="649.6" y1="551" x2="686.1" y2="551"/><polygon class="m s3" points="685.2,544.5 691.7,556 678.7,556"/><polygon class="m s2" points="686.1,544.5 692.6,551 686.1,557.5 679.6,551"/><rect class="m s1" x="657.9" y="546.2" width="9.5" height="9.5" rx="1.5"/><circle class="m s0" cx="649.6" cy="551" r="5.5"/></g><g class="run"><title>The same, reading the line
nano-rope: 4.35 ms, 20.9 MB allocated
text-rope: 220 ms, 827 MB allocated
yi-rope: 277 ms, 545 MB allocated
core-text: cannot do this
</title><rect class="hit" x="12" y="569" width="876" height="24" rx="4"/><text x="20" y="585" class="rl">The same, reading the line</text><line class="c" x1="417.7" y1="581" x2="475.8" y2="581"/><polygon class="m s2" points="475.8,574.5 482.3,581 475.8,587.5 469.3,581"/><rect class="m s1" x="467.8" y="576.2" width="9.5" height="9.5" rx="1.5"/><circle class="m s0" cx="417.7" cy="581" r="5.5"/><text x="812" y="586" class="q" text-anchor="end">50×</text><text x="818" y="585" class="qw">faster</text><line class="c" x1="664.4" y1="581" x2="692.8" y2="581"/><polygon class="m s2" points="689.5,574.5 696,581 689.5,587.5 683,581"/><rect class="m s1" x="688" y="576.2" width="9.5" height="9.5" rx="1.5"/><circle class="m s0" cx="664.4" cy="581" r="5.5"/></g><g class="run"><title>10,000 keystrokes in one spot, fresh
nano-rope: 452 µs, 3.58 MB allocated
text-rope: 2.97 ms, 24.4 MB allocated
yi-rope: 68.2 ms, 316 MB allocated
core-text: too slow to run
</title><rect class="hit" x="12" y="599" width="876" height="24" rx="4"/><text x="20" y="615" class="rl">10,000 keystrokes in one spot</text><text x="222" y="615" class="sl" text-anchor="end">fresh</text><line class="c" x1="386" y1="611" x2="456.2" y2="611"/><polygon class="m s2" points="456.2,604.5 462.7,611 456.2,617.5 449.7,611"/><rect class="m s1" x="407.6" y="606.2" width="9.5" height="9.5" rx="1.5"/><circle class="m s0" cx="386" cy="611" r="5.5"/><polygon class="m o s3" points="525,604.5 531.5,616 518.5,616"/><text x="812" y="616" class="q" text-anchor="end">6.6×</text><text x="818" y="615" class="qw">faster</text><line class="c" x1="650.7" y1="611" x2="685.3" y2="611"/><polygon class="m s2" points="685.3,604.5 691.8,611 685.3,617.5 678.8,611"/><rect class="m s1" x="660.8" y="606.2" width="9.5" height="9.5" rx="1.5"/><circle class="m s0" cx="650.7" cy="611" r="5.5"/></g><g class="run"><title>10,000 keystrokes in one spot, edited
nano-rope: 463 µs, 3.58 MB allocated
text-rope: 1.33 ms, 10.9 MB allocated
yi-rope: 91.8 ms, 398 MB allocated
core-text: 146 ms, 322 MB allocated
</title><rect class="hit" x="12" y="623" width="876" height="24" rx="4"/><text x="222" y="639" class="sl" text-anchor="end">edited</text><line class="c" x1="386.3" y1="635" x2="466.9" y2="635"/><polygon class="m s3" points="466.9,628.5 473.4,640 460.4,640"/><polygon class="m s2" points="460.4,628.5 466.9,635 460.4,641.5 453.9,635"/><rect class="m s1" x="396.3" y="630.2" width="9.5" height="9.5" rx="1.5"/><circle class="m s0" cx="386.3" cy="635" r="5.5"/><text x="812" y="640" class="q" text-anchor="end">2.9×</text><text x="818" y="639" class="qw">faster</text><line class="c" x1="650.7" y1="635" x2="687.1" y2="635"/><polygon class="m s3" points="685.5,628.5 692,640 679,640"/><polygon class="m s2" points="687.1,628.5 693.6,635 687.1,641.5 680.6,635"/><rect class="m s1" x="654.6" y="630.2" width="9.5" height="9.5" rx="1.5"/><circle class="m s0" cx="650.7" cy="635" r="5.5"/></g><text x="20" y="677" class="gh">Reading</text><g class="run"><title>Random splits, fresh
nano-rope: 9.41 ms, 46.4 MB allocated
text-rope: 1.56 s, 20.1 MB allocated
yi-rope: 109 ms, 142 MB allocated
core-text: too slow to run
</title><rect class="hit" x="12" y="691" width="876" height="24" rx="4"/><text x="20" y="707" class="rl">Random splits</text><text x="222" y="707" class="sl" text-anchor="end">fresh</text><line class="c" x1="428.5" y1="703" x2="500" y2="703"/><polygon class="m s2" points="462.8,696.5 469.3,703 462.8,709.5 456.3,703"/><rect class="m s1" x="495.3" y="698.2" width="9.5" height="9.5" rx="1.5"/><circle class="m s0" cx="428.5" cy="703" r="5.5"/><polygon class="m o s3" points="525,696.5 531.5,708 518.5,708"/><text x="812" y="708" class="q" text-anchor="end">12×</text><text x="818" y="707" class="qw">faster</text><line class="c" x1="664" y1="703" x2="679.2" y2="703"/><polygon class="m s2" points="679.2,696.5 685.7,703 679.2,709.5 672.7,703"/><rect class="m s1" x="659.3" y="698.2" width="9.5" height="9.5" rx="1.5"/><circle class="m s0" cx="670.5" cy="703" r="5.5"/></g><g class="run"><title>Random splits, edited
nano-rope: 10.5 ms, 45.6 MB allocated
text-rope: 18.8 ms, 107 MB allocated
yi-rope: 98.2 ms, 185 MB allocated
core-text: 78.9 ms, 160 MB allocated
</title><rect class="hit" x="12" y="715" width="876" height="24" rx="4"/><text x="222" y="731" class="sl" text-anchor="end">edited</text><line class="c" x1="430" y1="727" x2="461.3" y2="727"/><polygon class="m s3" points="458.2,720.5 464.7,732 451.7,732"/><polygon class="m s2" points="461.3,720.5 467.8,727 461.3,733.5 454.8,727"/><rect class="m s1" x="433.5" y="722.2" width="9.5" height="9.5" rx="1.5"/><circle class="m s0" cx="430" cy="727" r="5.5"/><text x="812" y="732" class="q" text-anchor="end">1.8×</text><text x="818" y="731" class="qw">faster</text><line class="c" x1="670.4" y1="727" x2="681.2" y2="727"/><polygon class="m s3" points="680.1,720.5 686.6,732 673.6,732"/><polygon class="m s2" points="681.2,720.5 687.7,727 681.2,733.5 674.7,727"/><rect class="m s1" x="672.2" y="722.2" width="9.5" height="9.5" rx="1.5"/><circle class="m s0" cx="670.4" cy="727" r="5.5"/></g><g class="run"><title>getLine, fresh
nano-rope: 2.52 ms, 5.39 MB allocated
text-rope: 1.64 s, 32.1 MB allocated
yi-rope: 129 ms, 228 MB allocated
core-text: cannot do this
</title><rect class="hit" x="12" y="745" width="876" height="24" rx="4"/><text x="20" y="761" class="rl">getLine</text><text x="222" y="761" class="sl" text-anchor="end">fresh</text><line class="c" x1="410.1" y1="757" x2="500.7" y2="757"/><polygon class="m s2" points="465.1,750.5 471.6,757 465.1,763.5 458.6,757"/><rect class="m s1" x="495.9" y="752.2" width="9.5" height="9.5" rx="1.5"/><circle class="m s0" cx="410.1" cy="757" r="5.5"/><text x="812" y="762" class="q" text-anchor="end">51×</text><text x="818" y="761" class="qw">faster</text><line class="c" x1="653.9" y1="757" x2="682.8" y2="757"/><polygon class="m s2" points="682.8,750.5 689.3,757 682.8,763.5 676.3,757"/><rect class="m s1" x="662.9" y="752.2" width="9.5" height="9.5" rx="1.5"/><circle class="m s0" cx="653.9" cy="757" r="5.5"/></g><g class="run"><title>getLine, edited
nano-rope: 2.47 ms, 4.92 MB allocated
text-rope: 15.5 ms, 78.9 MB allocated
yi-rope: 121 ms, 260 MB allocated
core-text: cannot do this
</title><rect class="hit" x="12" y="769" width="876" height="24" rx="4"/><text x="222" y="785" class="sl" text-anchor="end">edited</text><line class="c" x1="409.8" y1="781" x2="464.2" y2="781"/><polygon class="m s2" points="464.2,774.5 470.7,781 464.2,787.5 457.7,781"/><rect class="m s1" x="430.7" y="776.2" width="9.5" height="9.5" rx="1.5"/><circle class="m s0" cx="409.8" cy="781" r="5.5"/><text x="812" y="786" class="q" text-anchor="end">6.3×</text><text x="818" y="785" class="qw">faster</text><line class="c" x1="653.2" y1="781" x2="683.8" y2="781"/><polygon class="m s2" points="683.8,774.5 690.3,781 683.8,787.5 677.3,781"/><rect class="m s1" x="669.9" y="776.2" width="9.5" height="9.5" rx="1.5"/><circle class="m s0" cx="653.2" cy="781" r="5.5"/></g><g class="run"><title>Byte offsets to UTF-16 positions
nano-rope: 2.18 ms, 1.81 MB allocated
text-rope: cannot do this
yi-rope: cannot do this
core-text: cannot do this
</title><rect class="hit" x="12" y="799" width="876" height="24" rx="4"/><text x="20" y="815" class="rl">Byte offsets to UTF-16 positions</text><circle class="m s0" cx="408" cy="811" r="5.5"/><text x="812" y="815" class="qw" text-anchor="end">no other can</text><circle class="m s0" cx="645.5" cy="811" r="5.5"/></g><text x="20" y="883" class="gh">Memory</text><text x="812" y="902" class="ch" text-anchor="end">nano-rope against</text><text x="812" y="916" class="ch" text-anchor="end">the smallest other</text><line class="a" x1="236" y1="940" x2="712" y2="940"/><line class="a" x1="236" y1="994" x2="712" y2="994"/><line class="g" x1="236" y1="940" x2="236" y2="994"/><text x="236" y="932" class="k" text-anchor="middle">0 B</text><line class="g" x1="315.3" y1="940" x2="315.3" y2="994"/><text x="315.3" y="932" class="k" text-anchor="middle">2 MB</text><line class="g" x1="394.7" y1="940" x2="394.7" y2="994"/><text x="394.7" y="932" class="k" text-anchor="middle">4 MB</text><line class="g" x1="474" y1="940" x2="474" y2="994"/><text x="474" y="932" class="k" text-anchor="middle">6 MB</text><line class="g" x1="553.3" y1="940" x2="553.3" y2="994"/><text x="553.3" y="932" class="k" text-anchor="middle">8 MB</text><line class="g" x1="632.7" y1="940" x2="632.7" y2="994"/><text x="632.7" y="932" class="k" text-anchor="middle">10 MB</text><line class="g" x1="712" y1="940" x2="712" y2="994"/><text x="712" y="932" class="k" text-anchor="middle">12 MB</text><line class="c" x1="395.9" y1="940" x2="395.9" y2="999"/><text x="395.9" y="1013" class="k" text-anchor="middle">the Text alone, 4.03 MB</text><g class="run"><title>Live heap, fresh
nano-rope: 4.74 MB
text-rope: 5.08 MB
yi-rope: 4.56 MB
core-text: 4.03 MB
the Text alone: 4.03 MB
</title><rect class="hit" x="12" y="943" width="876" height="24" rx="4"/><text x="20" y="959" class="rl">Live heap</text><text x="222" y="959" class="sl" text-anchor="end">fresh</text><line class="c" x1="395.9" y1="955" x2="437.5" y2="955"/><polygon class="m s3" points="395.9,948.5 402.4,960 389.4,960"/><polygon class="m s2" points="416.8,948.5 423.3,955 416.8,961.5 410.3,955"/><rect class="m s1" x="432.7" y="950.2" width="9.5" height="9.5" rx="1.5"/><circle class="m s0" cx="424.2" cy="955" r="5.5"/><text x="812" y="960" class="q w" text-anchor="end">1.2×</text><text x="818" y="959" class="qw">larger</text></g><g class="run"><title>Live heap, edited
nano-rope: 4.79 MB
text-rope: 11.6 MB
yi-rope: 7.90 MB
core-text: 4.62 MB
the Text alone: 4.03 MB
</title><rect class="hit" x="12" y="967" width="876" height="24" rx="4"/><text x="222" y="983" class="sl" text-anchor="end">edited</text><line class="c" x1="419.1" y1="979" x2="697.8" y2="979"/><polygon class="m s3" points="419.1,972.5 425.6,984 412.6,984"/><polygon class="m s2" points="549.4,972.5 555.9,979 549.4,985.5 542.9,979"/><rect class="m s1" x="693" y="974.2" width="9.5" height="9.5" rx="1.5"/><circle class="m s0" cx="426.1" cy="979" r="5.5"/><text x="812" y="984" class="q w" text-anchor="end">1.0×</text><text x="818" y="983" class="qw">on par</text></g><line class="ru" x1="20" y1="1020" x2="880" y2="1020"/><text x="20" y="1050" class="n">Fresh: a freshly loaded rope. Edited: the same rope after 10,000 random inserts, in the shape it has mid-session. Rows</text><text x="20" y="1067" class="n">with one run are on a fresh rope.</text><text x="20" y="1084" class="n">A freshly loaded text-rope or core-text is a single chunk, and core-text is the Text it was loaded from, so loading</text><text x="20" y="1101" class="n">and saving them is far faster than nano-rope; their first reads and splits walk the whole text.</text><text x="20" y="1118" class="n">No mark: the library cannot do this (yi-rope has no UTF-16, core-text neither UTF-16 nor lines). A hollow mark at the</text><text x="20" y="1135" class="n">right: left out, a run takes minutes.</text><text x="20" y="1152" class="n">Live heap: what stays reachable after a major collection once the Text the document came from is dropped. A rope that</text><text x="20" y="1169" class="n">shares that Text keeps it alive.</text></svg>
